<?xml version="1.0" encoding="UTF-8"?><svg id="Layer_1" xmlns="http://www.w3.org/2000/svg" viewBox="0 0 2000 2000"><defs><style>.cls-1{fill:#8cd7f8;}.cls-2{fill:#5dabdf;}.cls-3{fill:none;}</style></defs><polygon class="cls-1" points="1420.46 1306.38 1197.13 1306.94 1168.72 1278.53 1221.67 1225.58 1280.67 1166.59 1420.46 1306.38"/><polygon class="cls-2" points="830.68 722.08 718.72 834.02 579.54 694.83 802.87 694.28 830.68 722.08"/><path class="cls-1" d="m1900.23,1653.38H241.48c-78.27,0-141.71-63.44-141.71-141.7,0-18.8,3.73-37.2,10.79-54.23,7.05-17.03,17.42-32.7,30.71-45.98l577.45-577.45,111.95-111.94,27.79-27.8h403.02l-341.79,341.79-332.32,332.32h1027.87l284.98,284.98Z"/><path class="cls-2" d="m1900.23,488.32c0,37.59-14.94,73.63-41.52,100.21l-43.07,43.08-487.72,487.72-47.26,47.26-59,58.99-81.36,81.36h-403.02l675.33-675.33H384.76L99.77,346.63h1658.75c78.26,0,141.71,63.44,141.71,141.7Z"/><rect class="cls-2" x="99.77" y="1714.83" width="1800.45" height="61.46"/><rect class="cls-2" x="99.77" y="223.7" width="1800.45" height="61.46"/><rect class="cls-3" width="2000" height="2000"/></svg>